<svg xmlns="http://www.w3.org/2000/svg" width="1607.768" height="284.797" viewBox="0 0 1607.768 284.797">
  <g id="Group_1" data-name="Group 1" transform="translate(-12.459 -176.597)">
    <text id="Rajasthan_State_Food_Civil_Supplies_Corporation_Ltd." data-name="Rajasthan State Food &amp; Civil Supplies Corporation Ltd." transform="translate(336.226 229.109)" fill="#566344" font-size="52" font-family="SofiaPro, Sofia Pro"><tspan x="0" y="0">Rajasthan State Food &amp; Civil Supplies Corporation Ltd.</tspan></text>
    <text id="A_State_Government_undertaking" data-name="A State Government undertaking" transform="translate(341.39 438.846)" fill="#566344" font-size="53" font-family="SofiaPro, Sofia Pro"><tspan x="0" y="0">A State Government undertaking</tspan></text>
    <g id="Group_4" data-name="Group 4" transform="translate(12.459 176.597)">
      <text id="S" transform="translate(64.984 151.904)" fill="#4d742c" font-size="54" font-family="SuperstarM54, Superstar M54"><tspan x="0" y="0">S</tspan></text>
      <text id="C" transform="translate(116.402 97.666)" fill="#4d742c" font-size="54" font-family="SuperstarM54, Superstar M54"><tspan x="0" y="0">C</tspan></text>
      <text id="C-2" data-name="C" transform="translate(114.876 152.884)" fill="#4d742c" font-size="54" font-family="SuperstarM54, Superstar M54"><tspan x="0" y="0">C</tspan></text>
      <text id="R" transform="translate(62.176 96.156)" fill="#4d742c" font-size="59" font-family="NexaBold, Nexa"><tspan x="0" y="0">R</tspan></text>
      <g id="Group_3" data-name="Group 3">
        <g id="Group_1-2" data-name="Group 1" transform="translate(89.229 89.485)">
          <path id="Path_1" data-name="Path 1" d="M42.667,258.461l5.358,8.091s46.708,5.571,74.134-22.712V231.41S93.877,265.266,42.667,258.461Z" transform="translate(-42.667 -158.989)" fill="#bacc64"/>
          <path id="Path_2" data-name="Path 2" d="M71.538,234.626s7.712-5.787,21.427-2.573C92.965,232.053,85.037,242.766,71.538,234.626Z" transform="translate(13.74 -159.632)" fill="#bacc64"/>
          <path id="Path_3" data-name="Path 3" d="M72.331,257.8S70.19,239.156,85.4,214.944a98.519,98.519,0,0,1-5.571,41.14S77.474,261.439,72.331,257.8Z" transform="translate(15.088 -191.16)" fill="#bacc64"/>
          <path id="Path_4" data-name="Path 4" d="M77.559,243.7s.641-18.426,10.069-30.424c0,0,2.785,9.213-3.214,29.139C84.415,242.415,80.675,248.99,77.559,243.7Z" transform="translate(25.504 -194.419)" fill="#bacc64"/>
          <path id="Path_5" data-name="Path 5" d="M78.126,228.874s7.068-6,22.924-2.785c0,0-9,12.214-22.924,6.643C78.126,232.731,76.2,231.659,78.126,228.874Z" transform="translate(24.937 -171.237)" fill="#bacc64"/>
          <path id="Path_6" data-name="Path 6" d="M82.419,232.538s.213-15.106,6-22.871c0,0,2.785,2.945,0,20.729C88.418,230.4,86.091,236.585,82.419,232.538Z" transform="translate(34.999 -201.47)" fill="#bacc64"/>
          <path id="Path_7" data-name="Path 7" d="M82.966,222.61s9-4.286,17.785-1.072c0,0-6.944,7.727-15.427,4.921C85.323,226.458,80.181,225.823,82.966,222.61Z" transform="translate(34.452 -180.613)" fill="#bacc64"/>
          <path id="Path_8" data-name="Path 8" d="M86.647,228.319s-2.57-15.212,6-21.427c0,0,3.855,6.215,0,16.5C92.649,223.392,88.576,233.677,86.647,228.319Z" transform="translate(42.554 -206.892)" fill="#bacc64"/>
          <path id="Path_9" data-name="Path 9" d="M86.344,219.111s7.638-6.856,20.712-2.357c0,0-3.784,6.215-16.674,5.143C90.381,221.9,85.555,222.112,86.344,219.111Z" transform="translate(42.497 -190.613)" fill="#bacc64"/>
        </g>
        <g id="Group_2" data-name="Group 2">
          <path id="Path_10" data-name="Path 10" d="M36.032,368.282s113.561,61.279,164.126-33.853c0,0,31.821-67.576-30.929-117.161A96.791,96.791,0,0,0,125.5,197.749c-15.555-2.643-38.434-4.369-67.184-.449,0,0,14.571-17.569,59.994-20.57,0,0,90.837-7.5,120.091,90.1a90.02,90.02,0,0,1,3.731,29.242c-1.043,27.854-10.988,83.542-71.115,107.78,0,0-59.135,25.71-108.844-6.427C62.173,397.424,41.6,386.711,36.032,368.282Z" transform="translate(33.598 -176.597)" fill="#729d37"/>
          <path id="Path_11" data-name="Path 11" d="M115.086,177.433S53.352,214.476,49.66,289.776c-.106,2.144-.222,4.3-.408,6.436-1.22,14.258-3.669,84.348,61.976,115.932,0,0,70.707,33.546,144.413-22.165,0,0,50.14-41.994,47.568-124.271,0,0,28.474,41.565.094,110.988,0,0-30.95,74.565-109.369,81.849,0,0-140.555,22.283-177.409-110.56,0,0-26.569-84.85,56.136-150.843C72.661,197.143,104.8,175.719,115.086,177.433Z" transform="translate(-12.459 -175.155)" fill="#4c6a29"/>
        </g>
      </g>
    </g>
    <text id="राजस्थान_राज्य_खाद्य_एवं_नागरिक_आपूर्ति_निगम_लिमिटेड" data-name="राजस्थान राज्य खाद्य एवं नागरिक आपूर्ति निगम लिमिटेड" transform="translate(338.697 340.506)" fill="#3f4f37" font-size="60" font-family="NirmalaUI, Nirmala UI"><tspan x="0" y="0">राजस्थान राज्य खाद्य एवं नागरिक आपूर्ति निगम लिमिटेड</tspan></text>
  </g>
</svg>
